<?xml version="1.0" encoding="utf-8"?>
<!-- Generator: Adobe Illustrator 23.0.3, SVG Export Plug-In . SVG Version: 6.00 Build 0)  -->
<svg version="1.1" id="Calque_1" xmlns="http://www.w3.org/2000/svg" xmlns:xlink="http://www.w3.org/1999/xlink" x="0px" y="0px"
	 viewBox="0 0 961.4 168.8" style="enable-background:new 0 0 961.4 168.8;" xml:space="preserve">
<style type="text/css">
	.st0{fill:#F9F9F9;}
	.st1{fill:#F8C434;}
	.st2{fill:#F8C434;enable-background:new    ;}
</style>
<g>
	<rect x="17.6" y="11.2" class="st0" width="50" height="50"/>
	<rect x="67.6" y="61.2" class="st0" width="50" height="50"/>
	<rect x="17.6" y="111.2" class="st0" width="50" height="50"/>
	<rect x="117.6" y="111.2" class="st0" width="50" height="50"/>
	<rect x="217.6" y="111.2" class="st1" width="50" height="50"/>
	<rect x="167.6" y="61.2" class="st1" width="50" height="50"/>
	<rect x="217.6" y="11.2" class="st1" width="50" height="50"/>
	<rect x="117.6" y="11.2" class="st1" width="50" height="50"/>
</g>
<path class="st0" d="M350.7,38.3h-36.9V25h89.8v13.3h-37.1v108h-15.8L350.7,38.3L350.7,38.3z"/>
<path class="st0" d="M453.3,146.3l-1.3-11h-0.5c-4.9,6.8-14.2,13-26.6,13c-17.6,0-26.6-12.4-26.6-25c0-21.1,18.7-32.6,52.4-32.4
	v-1.8c0-7.2-2-20.2-19.8-20.2c-8.1,0-16.6,2.5-22.7,6.5L404.6,65c7.2-4.7,17.6-7.7,28.6-7.7c26.6,0,33.1,18.2,33.1,35.6v32.6
	c0,7.6,0.4,14.9,1.4,20.9L453.3,146.3L453.3,146.3L453.3,146.3z M450.9,101.9c-17.3-0.4-36.9,2.7-36.9,19.6
	c0,10.3,6.8,15.1,14.9,15.1c11.3,0,18.5-7.2,21.1-14.6c0.5-1.6,0.9-3.4,0.9-5V101.9z"/>
<path class="st0" d="M499.2,59.2l12.4,18.7c3.2,4.9,5.9,9.4,8.8,14.2h0.5c2.9-5.2,5.8-9.7,8.6-14.4l12.2-18.5h17.1l-29.7,42.1
	l30.6,45h-18l-12.8-19.6c-3.4-5-6.3-9.9-9.4-15.1h-0.4c-2.9,5.2-5.9,9.9-9.2,15.1l-12.6,19.6h-17.5l31-44.5l-29.3-42.6L499.2,59.2
	L499.2,59.2z"/>
<path class="st0" d="M592.8,34.7c0.2,5.4-3.8,9.7-10.1,9.7c-5.6,0-9.5-4.3-9.5-9.7c0-5.6,4.1-9.9,9.9-9.9
	C589,24.8,592.8,29.1,592.8,34.7z M575.1,146.3V59.2H591v87.1H575.1z"/>
<path class="st2" d="M617.8,26.4c7.6-1.3,17.5-2.3,30.1-2.3c15.5,0,26.8,3.6,34,10.1c6.7,5.8,10.6,14.6,10.6,25.4
	c0,11-3.2,19.6-9.4,25.9c-8.3,8.8-21.8,13.3-37.1,13.3c-4.7,0-9-0.2-12.6-1.1v48.6h-15.7V26.4H617.8z M633.5,84.9
	c3.4,0.9,7.7,1.3,13,1.3c18.9,0,30.4-9.2,30.4-25.9c0-16-11.3-23.8-28.6-23.8c-6.8,0-12.1,0.5-14.8,1.3L633.5,84.9L633.5,84.9z"/>
<path class="st2" d="M756.6,146.3l-1.3-11h-0.5c-4.9,6.8-14.2,13-26.6,13c-17.6,0-26.6-12.4-26.6-25c0-21.1,18.7-32.6,52.4-32.4
	v-1.8c0-7.2-2-20.2-19.8-20.2c-8.1,0-16.6,2.5-22.7,6.5L707.9,65c7.2-4.7,17.6-7.7,28.6-7.7c26.6,0,33.1,18.2,33.1,35.6v32.6
	c0,7.6,0.4,14.9,1.4,20.9L756.6,146.3L756.6,146.3z M754.2,101.9c-17.3-0.4-36.9,2.7-36.9,19.6c0,10.3,6.8,15.1,14.9,15.1
	c11.3,0,18.5-7.2,21.1-14.6c0.5-1.6,0.9-3.4,0.9-5V101.9z"/>
<path class="st2" d="M795.1,86.4c0-10.3-0.2-19.1-0.7-27.2h13.9l0.5,17.1h0.7c4-11.7,13.5-19.1,24.1-19.1c1.8,0,3.1,0.2,4.5,0.5
	v14.9c-1.6-0.4-3.2-0.5-5.4-0.5c-11.2,0-19.1,8.5-21.2,20.3c-0.4,2.2-0.7,4.7-0.7,7.4v46.4h-15.7L795.1,86.4L795.1,86.4z"/>
<path class="st2" d="M872.3,34.7c0.2,5.4-3.8,9.7-10.1,9.7c-5.6,0-9.5-4.3-9.5-9.7c0-5.6,4.1-9.9,9.9-9.9
	C868.5,24.8,872.3,29.1,872.3,34.7z M854.7,146.3V59.2h15.8v87.1H854.7z"/>
<path class="st2" d="M894.6,130.1c4.7,3.1,13,6.3,20.9,6.3c11.5,0,16.9-5.8,16.9-13c0-7.6-4.5-11.7-16.2-16
	c-15.7-5.6-23-14.2-23-24.7c0-14,11.3-25.6,30.1-25.6c8.8,0,16.6,2.5,21.4,5.4l-4,11.5c-3.4-2.2-9.7-5-17.8-5
	c-9.4,0-14.6,5.4-14.6,11.9c0,7.2,5.2,10.4,16.6,14.8c15.1,5.8,22.9,13.3,22.9,26.3c0,15.3-11.9,26.1-32.6,26.1
	c-9.5,0-18.4-2.3-24.5-5.9L894.6,130.1z"/>
</svg>
